# xmcd
#
# Track frame offsets:
#	150
#	12288
#	25675
#	39596
#	57276
#	84195
#	98758
#	111329
#	120928
#	135434
#	157113
#	170976
#
# Disc length: 2906 seconds
#
# Revision: 1
# Processed by: cddbd v1.5PL3 Copyright (c) Steve Scherf et al.
# Submitted via: audiograbber 1.80.04
#
DISCID=900b580c
DTITLE=Scott Copeland - Nothin' to Do
DYEAR=1999
DGENRE=Country Blues
TTITLE0=Nothin' To Do
TTITLE1=Somebody Save Me
TTITLE2=Generation Me
TTITLE3=Weather Channel Blues
TTITLE4=Butler the Shoeshine Man
TTITLE5=Everybody Sux (but me)
TTITLE6=She-Beast
TTITLE7=When In Doubt
TTITLE8=I Wanna Be An Astronaut (A Song for Cole)
TTITLE9=I Kinda Like It That Way
TTITLE10=Dead Cat
TTITLE11=Grandmother and Pappy Song
EXTD=
EXTT0=
EXTT1=
EXTT2=
EXTT3=
EXTT4=
EXTT5=
EXTT6=
EXTT7=
EXTT8=
EXTT9=
EXTT10=
EXTT11=
PLAYORDER=
